<svg width="771" height="98" viewBox="0 0 771 98" fill="none" xmlns="http://www.w3.org/2000/svg">
<path d="M746.964 29.6006C762.364 29.6006 770.864 39.5008 770.864 55.8008C770.864 72.2006 762.564 82 747.764 82C735.864 81.9999 730.264 76.4 728.764 68H727.764V98H708.964V30.6006H726.563V44.2002H727.563C729.164 34.2003 735.164 29.6006 746.964 29.6006ZM191.449 29.6006C208.849 29.6007 219.949 38.3004 219.949 54.5C219.949 56.2 219.849 57.5008 219.649 59.3008H180.149C180.449 65.4005 183.15 67.1006 191.149 67.1006C198.749 67.1005 200.749 65.8005 200.749 62.8008V61.7002H219.549V62.9004C219.549 74.1004 208.849 82 191.849 82C174.749 81.9999 162.749 74.7004 162.749 55.8008C162.749 39.4008 174.649 29.6006 191.449 29.6006ZM252.68 29.6006C270.079 29.6006 281.179 38.3004 281.18 54.5C281.18 56.2 281.08 57.5008 280.88 59.3008H241.38C241.68 65.4005 244.38 67.1006 252.38 67.1006C259.979 67.1005 261.979 65.8005 261.979 62.8008V61.7002H280.779V62.9004C280.779 74.1004 270.079 82 253.079 82C235.979 81.9999 223.98 74.7004 223.979 55.8008C223.979 39.4008 235.88 29.6006 252.68 29.6006ZM376.898 29.6006C394.298 29.6007 405.398 38.3004 405.398 54.5C405.398 56.2 405.299 57.5008 405.099 59.3008H365.599C365.899 65.4005 368.599 67.1006 376.599 67.1006C384.198 67.1005 386.198 65.8005 386.198 62.8008V61.7002H404.998V62.9004C404.998 74.1004 394.298 82 377.298 82C360.198 81.9999 348.198 74.7004 348.198 55.8008C348.198 39.4008 360.098 29.6006 376.898 29.6006ZM535.587 81H517.986V67.4004H516.986C515.386 77.4003 509.387 81.9999 497.587 82C482.187 82 473.687 72.1005 473.687 55.8008C473.687 39.4009 481.986 29.6008 496.786 29.6006C508.686 29.6006 514.286 35.2006 515.786 43.6006H516.786V14H535.587V81ZM162.626 38.9111L97.3594 81.2959L97.3525 43.3643L38.9082 81.3184V81.3164H0V3.49512H38.9111V42.4004L104.168 0.0224609L104.174 37.9541L162.619 0L162.626 38.9111ZM305.01 48.1006H313.91L325.01 30.6006H347.21L329.31 55.1006L346.91 81H324.71L314.11 64.9004H305.01V81H286.21V14H305.01V48.1006ZM449.129 29.6006C462.729 29.6007 469.129 37.8004 469.129 48.7002V81H450.329V55.6006C450.329 48.6006 447.728 46.4004 439.528 46.4004C431.229 46.4005 429.229 48.5005 429.229 55V81H410.429V30.6006H428.028V45.9004H429.028C430.128 37.5004 435.629 29.6006 449.129 29.6006ZM617.181 29.6006C630.081 29.6006 636.181 37.8003 636.181 48.7002V81H617.381V55.6006C617.381 48.6006 615.381 46.4004 607.581 46.4004C599.881 46.4004 598.281 48.5004 598.281 55V81H579.481V55.6006C579.481 48.6006 577.481 46.4004 569.681 46.4004C561.981 46.4005 560.381 48.5005 560.381 55V81H541.581V30.6006H559.181V45.9004H560.181C561.281 37.5004 565.881 29.6006 578.581 29.6006C590.481 29.6006 596.181 36.8004 597.181 45.9004H598.181C599.281 37.5005 604.081 29.6007 617.181 29.6006ZM671.876 62.7002H673.177L685.876 30.6006H706.477L683.876 81H660.677L638.276 30.6006H659.276L671.876 62.7002ZM740.164 46.8008C731.764 46.8008 727.764 48.4004 727.764 55.7002V56.4004C727.764 63.5004 731.764 64.9004 740.164 64.9004C748.864 64.9004 751.864 62.5005 751.864 55.8008C751.864 49.1008 748.864 46.8008 740.164 46.8008ZM504.387 46.7002C495.687 46.7002 492.687 49.1008 492.687 55.8008C492.687 62.5005 495.687 64.8008 504.387 64.8008C512.787 64.8008 516.786 63.2003 516.786 55.9004V55.2002C516.786 48.1004 512.787 46.7002 504.387 46.7002ZM191.049 44C184.149 44 181.249 45.5008 180.449 49.8008H201.749C201.049 45.5008 198.049 44 191.049 44ZM252.279 44C245.379 44 242.48 45.5008 241.68 49.8008H262.979C262.279 45.5008 259.279 44 252.279 44ZM376.498 44C369.598 44 366.698 45.5008 365.898 49.8008H387.198C386.498 45.5008 383.498 44 376.498 44Z" fill="black"/>
</svg>
